HIERARCHY
ROOT Root
{
  OFFSET 0.0 0.0 0.0
  CHANNELS 6 Xposition Yposition Zposition Zrotation Yrotation Xrotation
  JOINT Hips
  {
    OFFSET 0.0 100.0 0.0
    CHANNELS 6 Xposition Yposition Zposition Zrotation Yrotation Xrotation
    JOINT Spine1
    {
      OFFSET 5.003913 -0.037094 -0.013727
      CHANNELS 3 Zrotation Yrotation Xrotation
      JOINT Spine2
      {
        OFFSET 7.125363 -1e-06 0.0
        CHANNELS 3 Zrotation Yrotation Xrotation
        JOINT Chest
        {
          OFFSET 7.594027 1e-06 0.0
          CHANNELS 3 Zrotation Yrotation Xrotation
          JOINT Neck1
          {
            OFFSET 26.313086 -0.460272 -0.181672
            CHANNELS 3 Zrotation Yrotation Xrotation
            JOINT Neck2
            {
              OFFSET 8.045911 0.0 0.0
              CHANNELS 3 Zrotation Yrotation Xrotation
              JOINT Head
              {
                OFFSET 6.432774 0.0 0.0
                CHANNELS 3 Zrotation Yrotation Xrotation
                JOINT HeadEnd
                {
                  OFFSET 16.169773 0.06451 0.00362
                  CHANNELS 3 Zrotation Yrotation Xrotation
                }
                JOINT Jaw
                {
                  OFFSET 0.108741 3.12938 0.002639
                  CHANNELS 3 Zrotation Yrotation Xrotation
                }
                JOINT LeftEye
                {
                  OFFSET 4.45173 8.166359 3.206392
                  CHANNELS 3 Zrotation Yrotation Xrotation
                }
                JOINT RightEye
                {
                  OFFSET 4.436895 8.135758 -3.222429
                  CHANNELS 3 Zrotation Yrotation Xrotation
                }
              }
            }
          }
          JOINT LeftShoulder
          {
            OFFSET 23.218927 5.195579 1.621656
            CHANNELS 3 Zrotation Yrotation Xrotation
            JOINT LeftArm
            {
              OFFSET 15.902118 2e-06 -2e-06
              CHANNELS 3 Zrotation Yrotation Xrotation
              JOINT LeftForeArm
              {
                OFFSET 28.739307 0.0 -1e-06
                CHANNELS 3 Zrotation Yrotation Xrotation
                JOINT LeftHand
                {
                  OFFSET 27.093981 -4e-06 0.0
                  CHANNELS 3 Zrotation Yrotation Xrotation
                  JOINT LeftHandThumb1
                  {
                    OFFSET 2.276781 3.380274 0.83384
                    CHANNELS 3 Zrotation Yrotation Xrotation
                    JOINT LeftHandThumb2
                    {
                      OFFSET 4.705309 -1e-06 -1e-06
                      CHANNELS 3 Zrotation Yrotation Xrotation
                      JOINT LeftHandThumb3
                      {
                        OFFSET 2.798515 0.0 3e-06
                        CHANNELS 3 Zrotation Yrotation Xrotation
                        JOINT LeftHandThumbEnd
                        {
                          OFFSET 3.180793 4e-06 -4e-06
                          CHANNELS 3 Zrotation Yrotation Xrotation
                        }
                      }
                    }
                  }
                  JOINT LeftHandIndex1
                  {
                    OFFSET 3.247786 2.352677 0.137192
                    CHANNELS 3 Zrotation Yrotation Xrotation
                    JOINT LeftHandIndex2
                    {
                      OFFSET 6.367095 1e-06 0.0
                      CHANNELS 3 Zrotation Yrotation Xrotation
                      JOINT LeftHandIndex3
                      {
                        OFFSET 3.662364 0.0 0.0
                        CHANNELS 3 Zrotation Yrotation Xrotation
                        JOINT LeftHandIndex4
                        {
                          OFFSET 2.329242 4e-06 -4e-06
                          CHANNELS 3 Zrotation Yrotation Xrotation
                          JOINT LeftHandIndexEnd
                          {
                            OFFSET 2.767823 1e-06 0.0
                            CHANNELS 3 Zrotation Yrotation Xrotation
                          }
                        }
                      }
                    }
                  }
                  JOINT LeftHandMiddle1
                  {
                    OFFSET 3.163612 0.945023 -0.406112
                    CHANNELS 3 Zrotation Yrotation Xrotation
                    JOINT LeftHandMiddle2
                    {
                      OFFSET 6.276789 3e-06 0.0
                      CHANNELS 3 Zrotation Yrotation Xrotation
                      JOINT LeftHandMiddle3
                      {
                        OFFSET 4.35652 -1e-06 4e-06
                        CHANNELS 3 Zrotation Yrotation Xrotation
                        JOINT LeftHandMiddle4
                        {
                          OFFSET 2.996877 0.0 8e-06
                          CHANNELS 3 Zrotation Yrotation Xrotation
                          JOINT LeftHandMiddleEnd
                          {
                            OFFSET 2.323256 3e-06 -4e-06
                            CHANNELS 3 Zrotation Yrotation Xrotation
                          }
                        }
                      }
                    }
                  }
                  JOINT LeftHandRing1
                  {
                    OFFSET 2.882606 -0.309162 0.107445
                    CHANNELS 3 Zrotation Yrotation Xrotation
                    JOINT LeftHandRing2
                    {
                      OFFSET 6.033198 0.0 4e-06
                      CHANNELS 3 Zrotation Yrotation Xrotation
                      JOINT LeftHandRing3
                      {
                        OFFSET 4.350578 3e-06 0.0
                        CHANNELS 3 Zrotation Yrotation Xrotation
                        JOINT LeftHandRing4
                        {
                          OFFSET 2.651321 2e-06 -7e-06
                          CHANNELS 3 Zrotation Yrotation Xrotation
                          JOINT LeftHandRingEnd
                          {
                            OFFSET 1.937663 1e-06 -4e-06
                            CHANNELS 3 Zrotation Yrotation Xrotation
                          }
                        }
                      }
                    }
                  }
                  JOINT LeftHandPinky1
                  {
                    OFFSET 2.865315 -1.525436 0.575687
                    CHANNELS 3 Zrotation Yrotation Xrotation
                    JOINT LeftHandPinky2
                    {
                      OFFSET 5.54936 1e-06 -8e-06
                      CHANNELS 3 Zrotation Yrotation Xrotation
                      JOINT LeftHandPinky3
                      {
                        OFFSET 3.070974 0.0 -4e-06
                        CHANNELS 3 Zrotation Yrotation Xrotation
                        JOINT LeftHandPinky4
                        {
                          OFFSET 1.549672 1e-06 0.0
                          CHANNELS 3 Zrotation Yrotation Xrotation
                          JOINT LeftHandPinkyEnd
                          {
                            OFFSET 1.952123 0.0 0.0
                            CHANNELS 3 Zrotation Yrotation Xrotation
                          }
                        }
                      }
                    }
                  }
                }
              }
            }
          }
          JOINT RightShoulder
          {
            OFFSET 23.161716 5.296122 -1.380114
            CHANNELS 3 Zrotation Yrotation Xrotation
            JOINT RightArm
            {
              OFFSET -16.027195 -2e-06 1.1e-05
              CHANNELS 3 Zrotation Yrotation Xrotation
              JOINT RightForeArm
              {
                OFFSET -28.736639 4e-06 2e-06
                CHANNELS 3 Zrotation Yrotation Xrotation
                JOINT RightHand
                {
                  OFFSET -27.133619 6e-06 0.0
                  CHANNELS 3 Zrotation Yrotation Xrotation
                  JOINT RightHandThumb1
                  {
                    OFFSET -2.274328 -3.351035 -0.83067
                    CHANNELS 3 Zrotation Yrotation Xrotation
                    JOINT RightHandThumb2
                    {
                      OFFSET -4.703594 -3e-06 2e-06
                      CHANNELS 3 Zrotation Yrotation Xrotation
                      JOINT RightHandThumb3
                      {
                        OFFSET -2.794935 -4e-06 -3e-06
                        CHANNELS 3 Zrotation Yrotation Xrotation
                        JOINT RightHandThumbEnd
                        {
                          OFFSET -3.183852 4e-06 1e-06
                          CHANNELS 3 Zrotation Yrotation Xrotation
                        }
                      }
                    }
                  }
                  JOINT RightHandIndex1
                  {
                    OFFSET -3.253496 -2.33755 -0.127667
                    CHANNELS 3 Zrotation Yrotation Xrotation
                    JOINT RightHandIndex2
                    {
                      OFFSET -6.344434 0.0 0.0
                      CHANNELS 3 Zrotation Yrotation Xrotation
                      JOINT RightHandIndex3
                      {
                        OFFSET -3.654871 0.0 -8e-06
                        CHANNELS 3 Zrotation Yrotation Xrotation
                        JOINT RightHandIndex4
                        {
                          OFFSET -2.327586 -1e-06 0.0
                          CHANNELS 3 Zrotation Yrotation Xrotation
                          JOINT RightHandIndexEnd
                          {
                            OFFSET -2.770001 3e-06 8e-06
                            CHANNELS 3 Zrotation Yrotation Xrotation
                          }
                        }
                      }
                    }
                  }
                  JOINT RightHandMiddle1
                  {
                    OFFSET -3.168223 -0.944764 0.411762
                    CHANNELS 3 Zrotation Yrotation Xrotation
                    JOINT RightHandMiddle2
                    {
                      OFFSET -6.266691 -1e-06 -4e-06
                      CHANNELS 3 Zrotation Yrotation Xrotation
                      JOINT RightHandMiddle3
                      {
                        OFFSET -4.348901 0.0 0.0
                        CHANNELS 3 Zrotation Yrotation Xrotation
                        JOINT RightHandMiddle4
                        {
                          OFFSET -3.00024 2e-06 -4e-06
                          CHANNELS 3 Zrotation Yrotation Xrotation
                          JOINT RightHandMiddleEnd
                          {
                            OFFSET -2.321477 -4e-06 -4e-06
                            CHANNELS 3 Zrotation Yrotation Xrotation
                          }
                        }
                      }
                    }
                  }
                  JOINT RightHandRing1
                  {
                    OFFSET -2.885654 0.293261 -0.119232
                    CHANNELS 3 Zrotation Yrotation Xrotation
                    JOINT RightHandRing2
                    {
                      OFFSET -6.032835 -1e-06 -4e-06
                      CHANNELS 3 Zrotation Yrotation Xrotation
                      JOINT RightHandRing3
                      {
                        OFFSET -4.33881 0.0 -4e-06
                        CHANNELS 3 Zrotation Yrotation Xrotation
                        JOINT RightHandRing4
                        {
                          OFFSET -2.654903 -4e-06 -4e-06
                          CHANNELS 3 Zrotation Yrotation Xrotation
                          JOINT RightHandRingEnd
                          {
                            OFFSET -1.935122 0.0 4e-06
                            CHANNELS 3 Zrotation Yrotation Xrotation
                          }
                        }
                      }
                    }
                  }
                  JOINT RightHandPinky1
                  {
                    OFFSET -2.866241 1.503904 -0.60527
                    CHANNELS 3 Zrotation Yrotation Xrotation
                    JOINT RightHandPinky2
                    {
                      OFFSET -5.553177 -2e-06 0.0
                      CHANNELS 3 Zrotation Yrotation Xrotation
                      JOINT RightHandPinky3
                      {
                        OFFSET -3.062664 -1e-06 -4e-06
                        CHANNELS 3 Zrotation Yrotation Xrotation
                        JOINT RightHandPinky4
                        {
                          OFFSET -1.546529 2e-06 4e-06
                          CHANNELS 3 Zrotation Yrotation Xrotation
                          JOINT RightHandPinkyEnd
                          {
                            OFFSET -1.952341 0.0 -4e-06
                            CHANNELS 3 Zrotation Yrotation Xrotation
                          }
                        }
                      }
                    }
                  }
                }
              }
            }
          }
        }
      }
    }
    JOINT LeftLeg
    {
      OFFSET -8.443107 2.567604 10.043214
      CHANNELS 3 Zrotation Yrotation Xrotation
      JOINT LeftShin
      {
        OFFSET 43.229198 1e-06 -1e-06
        CHANNELS 3 Zrotation Yrotation Xrotation
        JOINT LeftFoot
        {
          OFFSET 42.298611 1e-06 1e-06
          CHANNELS 3 Zrotation Yrotation Xrotation
          JOINT LeftToeBase
          {
            OFFSET 14.165858 1e-06 0.0
            CHANNELS 3 Zrotation Yrotation Xrotation
            JOINT LeftToeEnd
            {
              OFFSET 6.7141 -0.234461 0.0
              CHANNELS 3 Zrotation Yrotation Xrotation
            }
          }
        }
      }
    }
    JOINT RightLeg
    {
      OFFSET -8.303923 2.592729 -10.047278
      CHANNELS 3 Zrotation Yrotation Xrotation
      JOINT RightShin
      {
        OFFSET -43.369682 0.0 1e-06
        CHANNELS 3 Zrotation Yrotation Xrotation
        JOINT RightFoot
        {
          OFFSET -42.260784 4e-06 2e-06
          CHANNELS 3 Zrotation Yrotation Xrotation
          JOINT RightToeBase
          {
            OFFSET -14.222245 -2e-06 -1e-06
            CHANNELS 3 Zrotation Yrotation Xrotation
            JOINT RightToeEnd
            {
              OFFSET -6.660062 0.232574 -2e-06
              CHANNELS 3 Zrotation Yrotation Xrotation
            }
          }
        }
      }
    }
  }
}
MOTION
Frames: 4
Frame Time: 0.03333333333333333
0.0 0.0 0.0 0.0 -0.0 0.0 -1.389816 100.024963 -2.441982 89.705093 0.155595 90.036057 -2.01424 0.208542 0.04537 -11.407794 -0.417688 -0.043528 14.745161 -1.154798 -2.169573 18.789146 3.430521 2.567953 -2.454771 -0.884385 -0.006831 -23.523785 1.080345 -0.720362 6e-06 0.0 0.0 -0.032382 -0.003479 -0.031061 -0.065903 0.053322 -0.01945 -0.041601 -0.061141 -0.035641 -133.756332 -69.514519 150.294159 32.915447 -54.919483 0.705757 34.393501 0.704917 0.410065 -4.848699 2.969631 1.609465 17.636621 -26.322723 52.411182 -19.466663 -14.395594 29.410389 -2e-06 -8.774819 -4e-06 16.026882 -18.025465 6.074242 -0.609777 -1.795654 -3.889327 -4.807086 -11.046809 -2.937851 6e-06 -20.976015 -0.0 -5.019964 -25.033556 -4.031879 6e-06 0.0 -0.0 -10.634529 -5.686968 -3.565588 10.573271 -17.922947 -3.113902 4e-06 -13.821209 1e-06 -0.501772 -31.181505 -4.027016 -11.227705 -59.1996 6.792938 -13.982708 -7.150195 -2.875042 13.772726 -8.401493 -3.218242 0.347738 -34.211555 0.771653 -0.963027 -17.733372 2.621019 1e-06 2e-06 0.0 -17.346409 -20.095211 -4.201783 21.757549 -1.638377 3.866425 1e-06 -6.338822 -1e-06 -1.697584 -22.591742 -6.194008 -0.0 -3e-06 -2e-06 54.369492 -74.970604 141.014999 33.099949 -64.787537 2.150505 30.434301 0.432911 0.416004 8.729624 0.532816 15.73137 22.182116 -20.375896 49.933319 -16.701813 -16.743528 28.476532 -3e-06 -12.690601 0.0 15.976353 -17.941689 2.863967 -0.105919 -1.513855 -4.275883 -5.039041 -5.612872 -2.953555 6e-06 -11.020523 -5e-06 -6.111297 -15.89533 -3.840471 -0.0 1e-06 -1e-06 -10.28337 -5.680288 -4.341837 11.028296 -11.302406 -2.372635 -1.384268 -14.238584 -6.32012 -0.62544 -26.924187 -3.827599 -4.296147 -49.738468 -3.806794 -13.708524 -7.363475 -3.72094 18.14115 -14.052739 -3.242677 8e-06 -18.78727 -4e-06 -0.42971 -8.456043 2.555506 3e-06 -2e-06 -1e-06 -15.923532 -20.094482 -5.473588 30.41921 -7.190826 1.735924 1e-06 -8.162927 -1e-06 -1.8619 -22.861469 -6.167943 1e-06 -5e-06 -1e-06 -178.537628 -4.898769 0.100686 9.12632 -0.010932 -0.101906 -78.744347 -8.902463 -10.201462 -5.740101 1.649451 2.150483 -0.999999 0.0 0.0 2.889465 -5.429685 -0.37202 5.389739 0.008937 0.108854 -77.43306 1.347111 -7.637558 -5.632051 0.73175 1.713748 -1.000001 -0.0 0.0 
0.0 0.0 0.0 0.0 -0.0 0.0 -1.35131 100.043282 -2.404748 89.697578 0.084102 90.014877 -2.046061 0.238083 0.016697 -11.403504 -0.39338 -3.9e-05 14.690636 -1.179906 -2.219134 18.789324 3.386907 2.594269 -2.446345 -0.860395 -0.036127 -23.569954 1.023996 -0.728927 6e-06 -0.0 0.0 -0.036501 -0.005877 -0.018674 -0.054174 0.052169 -0.002535 -0.028996 -0.064884 -0.027163 -133.958496 -69.404152 150.534897 32.361336 -55.020142 -0.426928 35.794231 0.650456 0.344772 -4.805139 3.280155 1.089373 17.636627 -26.322729 52.411201 -19.466658 -14.395596 29.410393 -0.0 -8.774822 -3e-06 15.966127 -18.024782 6.080286 -0.609777 -1.795654 -3.889327 -4.807089 -11.046811 -2.937849 3e-06 -20.976015 0.0 -5.019971 -25.033554 -4.031882 6e-06 -0.0 1e-06 -10.634535 -5.686971 -3.565588 10.573272 -17.922947 -3.1139 2e-06 -13.821206 1e-06 -0.501778 -31.181501 -4.027015 -11.24987 -59.108425 6.819619 -13.982713 -7.150198 -2.875043 13.772729 -8.401491 -3.218243 0.347731 -34.211555 0.771653 -0.963029 -17.73337 2.621019 1e-06 0.0 1e-06 -17.346422 -20.095219 -4.201784 21.757557 -1.638374 3.866428 0.0 -6.338824 0.0 -1.69759 -22.591747 -6.194009 0.0 -4e-06 -2e-06 54.173344 -74.770927 141.350037 32.07127 -64.81234 1.040051 31.330204 0.603319 0.448667 8.939491 0.861072 15.068265 22.182116 -20.375891 49.933308 -16.701811 -16.743528 28.476522 -3e-06 -12.6906 -3e-06 15.925691 -17.857374 2.881403 -0.105919 -1.513856 -4.27588 -5.03904 -5.612871 -2.953558 3e-06 -11.020527 -1e-06 -6.111297 -15.895334 -3.840467 -0.0 -0.0 -1e-06 -10.283371 -5.68029 -4.34184 11.028292 -11.302404 -2.372634 -1.384269 -14.238582 -6.320119 -0.625439 -26.924187 -3.827598 -4.269044 -49.742516 -3.750514 -13.708523 -7.363475 -3.720938 18.141148 -14.052739 -3.242672 5e-06 -18.78727 1e-06 -0.42971 -8.456045 2.555501 2e-06 -0.0 -2e-06 -15.923532 -20.094482 -5.473586 30.419205 -7.190826 1.735927 0.0 -8.162924 -1e-06 -1.861903 -22.861473 -6.16794 -1e-06 -5e-06 -2e-06 -178.469009 -4.883646 0.089955 8.885412 -0.002776 -0.068393 -78.650749 -8.926723 -10.271567 -5.814318 1.67297 2.1603 -1.0 1e-06 0.0 2.818925 -5.422603 -0.325077 5.386278 0.000207 0.106823 -77.364807 1.388816 -7.649372 -5.694925 0.729921 1.718249 -1.000002 -0.0 -0.0 
0.0 0.0 0.0 0.0 -0.0 0.0 -1.32528 100.049553 -2.38235 89.707504 -0.000169 90.022873 -2.083599 0.268268 -0.023078 -11.41435 -0.371697 0.008243 14.640823 -1.213217 -2.254378 18.788424 3.347053 2.638159 -2.478897 -0.855515 -0.105057 -23.494074 0.946472 -0.753275 6e-06 0.0 0.0 -0.044265 -0.006291 -0.013074 -0.064578 0.051844 0.007114 -0.039018 -0.06554 -0.025591 -133.974457 -69.332298 150.528839 31.462013 -55.237865 -1.526767 37.652195 0.543852 0.28416 -4.863716 3.569134 0.316387 17.636627 -26.322733 52.41119 -19.466665 -14.395596 29.410393 -1e-06 -8.774822 -2e-06 15.920469 -18.061049 6.1014 -0.609777 -1.795655 -3.889328 -4.807087 -11.046811 -2.937851 5e-06 -20.976021 -1e-06 -5.019969 -25.03356 -4.031882 5e-06 0.0 1e-06 -10.634535 -5.686972 -3.56559 10.573275 -17.922956 -3.113902 4e-06 -13.821213 2e-06 -0.501774 -31.181507 -4.027017 -11.285464 -59.085468 6.826461 -13.982713 -7.150199 -2.875042 13.77273 -8.401493 -3.218243 0.347735 -34.211555 0.771652 -0.963028 -17.733372 2.62102 0.0 0.0 -1e-06 -17.346418 -20.095221 -4.20178 21.757557 -1.638376 3.866427 1e-06 -6.338825 1e-06 -1.697587 -22.591747 -6.194006 -1e-06 -3e-06 -1e-06 54.056908 -74.582405 141.561279 30.53598 -64.982346 -0.244509 32.712948 0.766916 0.483575 9.180466 1.412372 14.211652 22.182121 -20.375893 49.933315 -16.701817 -16.74353 28.47653 -5e-06 -12.690601 -0.0 15.848285 -17.752609 2.93038 -0.105919 -1.513856 -4.275884 -5.039042 -5.612871 -2.953554 4e-06 -11.020524 -2e-06 -6.111297 -15.89533 -3.840472 -1e-06 1e-06 -0.0 -10.283369 -5.680288 -4.341841 11.028296 -11.302406 -2.372632 -1.384268 -14.238582 -6.320118 -0.625437 -26.924189 -3.827601 -4.251906 -49.706707 -3.693217 -13.708522 -7.363473 -3.720941 18.141148 -14.052739 -3.242673 4e-06 -18.78727 -1e-06 -0.42971 -8.456044 2.555505 -0.0 0.0 -2e-06 -15.923534 -20.094482 -5.473587 30.419214 -7.190828 1.735926 0.0 -8.162925 -2e-06 -1.8619 -22.861475 -6.167943 -1e-06 -1e-06 -1e-06 -178.520813 -4.858205 0.081508 8.833112 -0.001413 -0.038057 -78.633827 -8.941736 -10.264454 -5.81696 1.682893 2.168613 -0.999999 0.0 -0.0 2.756835 -5.456673 -0.314786 5.377445 0.001986 0.106688 -77.353058 1.406609 -7.706294 -5.684649 0.735448 1.720882 -1.000002 -0.0 -0.0 
0.0 0.0 0.0 0.0 -0.0 0.0 -1.313245 100.050781 -2.360663 89.728348 -0.092037 90.038078 -2.116307 0.286188 -0.053123 -11.427085 -0.357009 -0.00758 14.578876 -1.235517 -2.288309 18.790268 3.29093 2.661029 -2.515579 -0.8461 -0.134238 -23.411871 0.883241 -0.762557 6e-06 -0.0 0.0 -0.052044 -0.006831 -0.017346 -0.080365 0.053191 0.00584 -0.055975 -0.06805 -0.033243 -133.844574 -69.304352 150.364838 30.384886 -55.485043 -2.440482 39.811859 0.47382 0.256514 -4.935789 3.838142 -0.507097 17.636629 -26.322737 52.411194 -19.466663 -14.395598 29.410389 -1e-06 -8.774821 -3e-06 15.892761 -18.075264 6.12498 -0.609775 -1.795653 -3.889327 -4.80709 -11.046813 -2.937849 5e-06 -20.976021 -1e-06 -5.019969 -25.03356 -4.031879 6e-06 -0.0 0.0 -10.634533 -5.68697 -3.565586 10.573271 -17.922951 -3.113903 4e-06 -13.821211 2e-06 -0.501774 -31.181505 -4.027015 -11.294777 -59.108978 6.812848 -13.982711 -7.150197 -2.875042 13.772727 -8.401493 -3.218241 0.347732 -34.211559 0.771654 -0.963027 -17.73337 2.621019 0.0 1e-06 -1e-06 -17.346413 -20.095217 -4.201779 21.757555 -1.638375 3.866426 0.0 -6.338825 1e-06 -1.697588 -22.591747 -6.19401 0.0 -5e-06 -1e-06 54.077198 -74.405136 141.589523 28.592951 -65.242233 -1.3515 34.661682 0.982475 0.537614 9.343549 1.948774 13.367981 22.182114 -20.375895 49.933319 -16.701813 -16.743528 28.476534 -4e-06 -12.6906 -1e-06 15.755811 -17.663561 2.981239 -0.105918 -1.513855 -4.275882 -5.039039 -5.61287 -2.953556 4e-06 -11.020523 -2e-06 -6.111295 -15.895329 -3.840471 -1e-06 -1e-06 -2e-06 -10.283368 -5.680287 -4.341839 11.028292 -11.302404 -2.372632 -1.384267 -14.238577 -6.320121 -0.625432 -26.924181 -3.827604 -4.256078 -49.660091 -3.634455 -13.708525 -7.363475 -3.720937 18.141151 -14.052739 -3.242676 1e-05 -18.78727 -3e-06 -0.429711 -8.456043 2.555505 0.0 1e-06 -1e-06 -15.923531 -20.094479 -5.473586 30.419205 -7.190829 1.735923 2e-06 -8.162922 -0.0 -1.861901 -22.861467 -6.16794 0.0 -3e-06 -1e-06 -178.600952 -4.829848 0.06027 8.815597 0.000515 -0.021781 -78.629715 -8.971865 -10.247148 -5.793887 1.681115 2.17294 -0.999998 0.0 0.0 2.690811 -5.509658 -0.321132 5.372102 0.007831 0.102055 -77.372749 1.447524 -7.784869 -5.658326 0.739137 1.721823 -1.000003 0.0 0.0 
